# xmcd
#
# Track frame offsets:
#  150
#  18878
#  37620
#  57964
#  89547
#  101704
#  119922
#  137800
#  155346
#  173858
#
# Disc length: 2486 seconds
#
# Revision: 2
# Processed by: cddbd v1.4PL0 Copyright (c) Steve Scherf et al.
# Submitted via: AltoMP3_Maker 3.0
#
DISCID=7f09b40a
DTITLE=Γιάννης Μαρκόπουλος - Ιθαγένεια
DYEAR=1900
DGENRE=
TTITLE0=Γεννήθηκα
TTITLE1=Χίλια μύρια κύματα μακρυά τ' Αϊβαλί
TTITLE2=Είδα τον παπούλη μου
TTITLE3=Μάννα
TTITLE4=Ερωτικό τραγούδι (Παλληκαρού - Παλληκαρού)
TTITLE5=Ακούς να λένε στα χωριά
TTITLE6=Χρόνια και χρόνια στον τροχό
TTITLE7=Ο καλόγερος
TTITLE8=Τη μέρα της Πεντηκοστής
TTITLE9=Αντρικός χορός
EXTD=
EXTT0=
EXTT1=
EXTT2=
EXTT3=
EXTT4=
EXTT5=
EXTT6=
EXTT7=
EXTT8=
EXTT9=
PLAYORDER=
